<svg enable-background="new 0 0 24 24" height="16" viewBox="0 0 24 24" width="16" xmlns="http://www.w3.org/2000/svg"><path d="m14.077 16.79c-.065-.224-.231-.404-.448-.489l-3.857-1.5c-.231-.09-.491-.061-.695.08-.205.14-.327.371-.327.619v6.75c0 .324.208.611.516.713.077.025.156.037.234.037.234 0 .46-.11.604-.306l3.857-5.25c.139-.188.181-.429.116-.654z" fill="#2196f3"/><path d="m23.685.139c-.23-.163-.532-.185-.782-.054l-22.5 11.75c-.266.139-.423.423-.401.722.023.3.222.556.505.653l19.75 6.75c.079.026.161.04.243.04.136 0 .271-.037.39-.109.19-.116.319-.311.352-.53l2.75-18.5c.041-.28-.077-.558-.307-.722z" fill="#64b5f6"/></svg>