<svg id="Capa_1" enable-background="new 0 0 512 512" height="512" viewBox="0 0 512 512" width="512" xmlns="http://www.w3.org/2000/svg" xmlns:xlink="http://www.w3.org/1999/xlink"><linearGradient id="SVGID_1_" gradientUnits="userSpaceOnUse" x1="256" x2="256" y1="481.01" y2="30.99"><stop offset="0" stop-color="#5558ff"/><stop offset="1" stop-color="#00c0ff"/></linearGradient><g><g><g><path d="m505.73 183.801-212-150c-4.6-3.296-10.606-3.721-15.586-1.128-5.01 2.563-8.145 7.705-8.145 13.33v75.396c-150.204 7.822-269.999 132.495-269.999 284.604v60c0 7.485 5.508 13.813 12.92 14.854 7.233 1.055 14.424-3.428 16.494-10.723l2.314-8.101c30.762-107.636 127.471-184.218 238.272-190.605v74.575c0 5.625 3.135 10.767 8.145 13.33 4.98 2.593 10.986 2.139 15.586-1.128l212-150c3.926-2.813 6.27-7.354 6.27-12.202s-2.345-9.39-6.271-12.202z" fill="url(#SVGID_1_)"/></g></g></g></svg>